<svg width="63" height="14" viewBox="0 0 63 14" fill="none" xmlns="http://www.w3.org/2000/svg">
<path d="M2.87358 0.636363L6.09126 10.3679H6.21804L9.42969 0.636363H11.8928L7.53409 13H4.76918L0.416548 0.636363H2.87358ZM13.4246 13V3.72727H15.61V13H13.4246ZM14.5233 2.41122C14.1772 2.41122 13.8794 2.29652 13.6299 2.06712C13.3804 1.83369 13.2556 1.55398 13.2556 1.22798C13.2556 0.897964 13.3804 0.618252 13.6299 0.388849C13.8794 0.155421 14.1772 0.038707 14.5233 0.038707C14.8735 0.038707 15.1713 0.155421 15.4168 0.388849C15.6663 0.618252 15.7911 0.897964 15.7911 1.22798C15.7911 1.55398 15.6663 1.83369 15.4168 2.06712C15.1713 2.29652 14.8735 2.41122 14.5233 2.41122ZM21.9624 13.1811C21.0327 13.1811 20.2298 12.9879 19.5536 12.6016C18.8815 12.2112 18.3643 11.6598 18.0021 10.9474C17.6399 10.2311 17.4588 9.3879 17.4588 8.41797C17.4588 7.46413 17.6399 6.62701 18.0021 5.9066C18.3684 5.18217 18.8795 4.61873 19.5355 4.21626C20.1915 3.80978 20.9622 3.60653 21.8477 3.60653C22.4192 3.60653 22.9585 3.6991 23.4656 3.88423C23.9767 4.06534 24.4274 4.34706 24.8178 4.7294C25.2122 5.11174 25.5221 5.59872 25.7475 6.19034C25.9729 6.77794 26.0856 7.47822 26.0856 8.29119V8.96129H18.4851V7.48828H23.9908C23.9867 7.06972 23.8962 6.69744 23.7191 6.37145C23.542 6.04143 23.2945 5.78184 22.9766 5.59268C22.6626 5.40353 22.2964 5.30895 21.8778 5.30895C21.4311 5.30895 21.0387 5.41761 20.7006 5.63494C20.3626 5.84825 20.099 6.12997 19.9098 6.48011C19.7247 6.82623 19.6301 7.20656 19.6261 7.62109V8.90696C19.6261 9.44626 19.7247 9.90909 19.9219 10.2955C20.1191 10.6778 20.3948 10.9716 20.7489 11.1768C21.1031 11.3781 21.5176 11.4787 21.9925 11.4787C22.3105 11.4787 22.5982 11.4344 22.8558 11.3459C23.1134 11.2533 23.3368 11.1185 23.5259 10.9414C23.7151 10.7643 23.858 10.545 23.9545 10.2834L25.995 10.5128C25.8662 11.0521 25.6207 11.523 25.2585 11.9254C24.9003 12.3239 24.4415 12.6338 23.8821 12.8551C23.3227 13.0724 22.6828 13.1811 21.9624 13.1811ZM29.7983 13L27.1783 3.72727H29.4059L31.0359 10.2472H31.1204L32.7866 3.72727H34.9901L36.6562 10.2109H36.7468L38.3526 3.72727H40.5863L37.9602 13H35.6843L33.9457 6.73366H33.8189L32.0803 13H29.7983ZM48.9972 13.1871C48.4097 13.1871 47.8804 13.0825 47.4095 12.8732C46.9427 12.6599 46.5724 12.346 46.2987 11.9315C46.0291 11.5169 45.8943 11.0058 45.8943 10.3981C45.8943 9.87488 45.9909 9.44223 46.184 9.10014C46.3772 8.75805 46.6408 8.48438 46.9749 8.27912C47.3089 8.07386 47.6852 7.91892 48.1038 7.81428C48.5264 7.70561 48.963 7.62713 49.4138 7.57883C49.9571 7.52249 50.3978 7.47218 50.7359 7.42791C51.074 7.37962 51.3195 7.30717 51.4724 7.21058C51.6294 7.10997 51.7078 6.95502 51.7078 6.74574V6.70952C51.7078 6.25473 51.573 5.90258 51.3034 5.65305C51.0337 5.40353 50.6453 5.27876 50.1382 5.27876C49.603 5.27876 49.1784 5.39548 48.8644 5.62891C48.5545 5.86233 48.3453 6.13802 48.2366 6.45597L46.1961 6.16619C46.3571 5.60275 46.6227 5.13187 46.993 4.75355C47.3633 4.37121 47.816 4.08546 48.3513 3.89631C48.8866 3.70312 49.4782 3.60653 50.1262 3.60653C50.5729 3.60653 51.0176 3.65885 51.4603 3.76349C51.903 3.86813 52.3075 4.04119 52.6737 4.28267C53.04 4.52012 53.3338 4.8441 53.5551 5.25462C53.7805 5.66513 53.8932 6.17827 53.8932 6.79403V13H51.7923V11.7262H51.7199C51.5871 11.9838 51.3999 12.2253 51.1585 12.4506C50.921 12.672 50.6212 12.8511 50.259 12.9879C49.9008 13.1207 49.4802 13.1871 48.9972 13.1871ZM49.5647 11.5813C50.0034 11.5813 50.3837 11.4948 50.7057 11.3217C51.0277 11.1446 51.2752 10.9112 51.4482 10.6214C51.6253 10.3317 51.7139 10.0157 51.7139 9.67365V8.58097C51.6454 8.63731 51.5287 8.68963 51.3637 8.73793C51.2027 8.78622 51.0216 8.82848 50.8204 8.8647C50.6192 8.90092 50.42 8.93312 50.2227 8.96129C50.0255 8.98946 49.8545 9.01361 49.7096 9.03374C49.3836 9.07801 49.0918 9.15045 48.8343 9.25107C48.5767 9.35168 48.3734 9.49254 48.2245 9.67365C48.0756 9.85073 48.0012 10.0801 48.0012 10.3619C48.0012 10.7643 48.1481 11.0682 48.4419 11.2734C48.7356 11.4787 49.1099 11.5813 49.5647 11.5813ZM58.276 0.636363V13H56.0906V0.636363H58.276ZM62.7086 0.636363V13H60.5233V0.636363H62.7086Z" fill="#FB8F1D"/>
</svg>
